<svg width="305" height="54" viewBox="0 0 305 54" fill="none" xmlns="http://www.w3.org/2000/svg">
<path fill-rule="evenodd" clip-rule="evenodd" d="M31.9039 40.5833C34.0329 38.4663 35.5981 36.4156 36.7323 34.4644C32.9496 36.6101 28.5922 37.8608 23.9385 37.9183C24.2192 39.3237 25.0483 42.0838 27.0225 43.5135L30.4249 42.2141L31.9017 40.5811L31.9039 40.5833Z" fill="#111827"/>
<path fill-rule="evenodd" clip-rule="evenodd" d="M41.7684 42.5983C45.9114 41.341 49.3028 38.8196 51.8231 36.36C52.9638 33.3856 53.5917 30.1593 53.5917 26.7828C53.5917 26.5109 53.5873 26.2413 53.5784 25.9718C53.5784 25.8922 53.574 25.8126 53.5696 25.7331C53.563 25.5364 53.5519 25.342 53.5408 25.1453C53.5364 25.0635 53.532 24.9818 53.5254 24.9022C53.5099 24.6879 53.4922 24.4757 53.4745 24.2636C53.4701 24.2105 53.4635 24.1575 53.459 24.1045C53.417 23.678 53.3551 23.2581 53.2932 22.836C51.7612 25.6337 49.6941 28.6125 46.9372 31.2421C46.9372 31.2421 51.2328 25.6359 51.6086 16.6552C50.207 13.2256 48.1134 10.154 45.5047 7.60827C45.3543 7.46242 45.1156 7.23039 44.795 6.93869C44.7729 6.9166 44.7508 6.89671 44.7287 6.87682C44.6071 6.76633 44.4766 6.65142 44.3329 6.52546C44.2909 6.48789 44.2445 6.45033 44.2025 6.41276C44.103 6.32879 43.9991 6.2404 43.8908 6.152C43.7957 6.07245 43.7007 5.99511 43.6056 5.91997C43.5282 5.8581 43.4486 5.79402 43.3668 5.72993C43.2806 5.65922 43.19 5.59071 43.1015 5.52442C43.0441 5.48022 42.9844 5.43382 42.9247 5.38962C42.7987 5.2946 42.6704 5.19958 42.5422 5.10677C42.4317 5.02721 42.3189 4.94545 42.2017 4.86148C42.1509 4.82612 42.1 4.79297 42.0514 4.75762C41.9077 4.65818 41.7596 4.55652 41.6093 4.45708C41.6004 4.45045 41.5916 4.44603 41.5849 4.4394C41.1826 4.17202 40.7559 3.90021 40.3005 3.63062C40.369 3.69028 40.4353 3.74994 40.5039 3.80961C44.9232 10.3838 45.456 18.4916 44.2755 23.3266C41.6667 33.9933 34.3579 41.0227 26.1758 42.7398C29.2355 45.9175 33.8273 47.1572 37.5878 46.7616C41.1428 46.6931 44.3772 45.7473 46.7537 44.6557C47.8746 43.4049 48.8783 42.0459 49.7516 40.6029C44.994 42.5387 41.7773 42.5939 41.7773 42.5939L41.7684 42.5983Z" fill="#111827"/>
<path fill-rule="evenodd" clip-rule="evenodd" d="M53.5696 25.7355C53.563 25.5389 53.5519 25.3444 53.5408 25.1477C53.5364 25.066 53.532 24.9842 53.5254 24.9046C53.5099 24.6903 53.4922 24.4782 53.4745 24.266C53.4701 24.213 53.4635 24.1599 53.459 24.1069C53.417 23.6804 53.3551 23.2605 53.2932 22.8385C51.7612 25.6361 49.6941 28.6149 46.9372 31.2446C46.9372 31.2446 51.2328 25.6383 51.6086 16.6576C50.207 13.228 48.1134 10.1564 45.5047 7.61071C45.3543 7.46486 45.1156 7.23283 44.795 6.94114C44.7729 6.91904 44.7508 6.89915 44.7287 6.87926C44.6071 6.76877 44.4766 6.65386 44.3329 6.5279C44.2909 6.49034 44.2445 6.45277 44.2025 6.4152C44.103 6.33123 43.9991 6.24284 43.8908 6.15444C43.7957 6.07489 43.7007 5.99755 43.6056 5.92241C43.5282 5.86054 43.4486 5.79646 43.3668 5.73237C43.2806 5.66166 43.19 5.59315 43.1015 5.52686C43.0441 5.48266 42.9844 5.43626 42.9247 5.39206C42.7987 5.29704 42.6704 5.20202 42.5422 5.10921C42.4317 5.02965 42.3189 4.94789 42.2017 4.86392C42.1509 4.82856 42.1 4.79541 42.0514 4.76006C41.9077 4.66062 41.7596 4.55897 41.6093 4.45952C41.6004 4.45289 41.5916 4.44847 41.5849 4.44185C41.1826 4.17446 40.7559 3.90265 40.3005 3.63306C40.369 3.69272 40.4353 3.75239 40.5039 3.81205C44.9232 10.3862 45.456 18.494 44.2755 23.3291C41.6667 33.9958 34.3579 41.0252 26.1758 42.7422C26.786 43.0471 29.8833 43.7189 31.7182 43.8383C32.3041 43.8758 32.8966 43.8957 33.4935 43.8957C40.5017 43.8957 46.882 41.2042 51.6573 36.8C52.9086 33.7063 53.5983 30.3253 53.5983 26.7808C53.5983 26.509 53.5939 26.2394 53.5851 25.9698C53.5851 25.8902 53.5806 25.8107 53.5762 25.7311L53.5696 25.7355Z" fill="#111827"/>
<path fill-rule="evenodd" clip-rule="evenodd" d="M42.4226 48.5408C38.5957 49.027 34.6053 48.7154 30.6789 47.1729C27.3628 45.8714 21.555 40.3336 24.0687 33.6092C25.2625 30.4182 28.6229 26.7698 32.9605 27.1101C34.2914 27.2162 35.3127 27.9631 35.8809 29.0989C37.2825 26.2792 34.581 24.6042 32.1668 24.3236C32.3812 23.9258 32.3039 23.1303 31.9546 22.6596C31.2604 21.7226 30.0599 21.2917 28.5831 21.1414C26.8786 19.7249 25.4151 19.1482 25.2426 14.7971C23.684 17.8908 24.0311 18.8499 25.7025 20.7393C22.9257 19.1968 20.6575 19.3581 20.726 13.8999C19.0679 18.1494 19.6317 19.3117 22.362 20.8321C19.5631 20.7282 18.031 19.957 17.0185 17.6544C16.4769 20.8895 18.9308 21.9259 21.5484 22.6021C18.4002 23.7799 17.695 24.2219 15.4842 26.8007C16.9588 26.0627 19.0171 26.0317 20.065 25.9456C14.5535 29.2536 8.2837 39.9844 11.6308 48.8634C15.9441 51.829 21.1659 53.5659 26.7968 53.5659C32.4277 53.5659 38.0254 51.7031 42.4226 48.5408V48.5408Z" fill="#111827"/>
<path d="M30.3652 27.3949C31.181 27.1519 32.0476 27.0392 32.9607 27.1121C34.2916 27.2181 35.313 27.9651 35.8811 29.1009C37.2828 26.2812 34.5812 24.6062 32.167 24.3255C32.3815 23.9277 32.3041 23.1322 31.9548 22.6615C31.2606 21.7246 30.0601 21.2937 28.5833 21.1434C26.8788 19.7269 25.4153 19.1501 25.2429 14.799C23.6842 17.8928 24.0313 18.8518 25.7027 20.7412C22.9259 19.1988 20.6577 19.3601 20.7262 13.9019C19.0681 18.1513 19.6319 19.3137 22.3622 20.834C19.5633 20.7302 18.0313 19.9589 17.0187 17.6563C16.4771 20.8915 18.9311 21.9279 21.5486 22.6041C18.4005 23.7819 17.6952 24.2239 15.4845 26.8027C16.959 26.0646 19.0173 26.0337 20.0652 25.9475C14.5869 29.2357 8.34584 39.8781 11.578 48.7107C11.6686 44.1541 13.3466 30.1395 30.3674 27.3949H30.3652Z" fill="#111827"/>
<path fill-rule="evenodd" clip-rule="evenodd" d="M42.4229 48.5406C41.2269 48.6931 40.0154 48.766 38.795 48.7505C36.1089 48.713 33.3786 48.2357 30.6792 47.1727C27.3631 45.8712 21.5553 40.3334 24.069 33.609C24.1221 33.4675 24.1817 33.3239 24.2436 33.1825C24.2569 33.1515 24.268 33.1228 24.2812 33.0919C24.3453 32.9504 24.4095 32.8068 24.4824 32.6632C24.489 32.6477 24.4979 32.6344 24.5045 32.6212C24.5775 32.4775 24.6526 32.3339 24.7322 32.1903C24.7389 32.1792 24.7433 32.1704 24.7499 32.1593C24.8361 32.0046 24.929 31.8499 25.0263 31.6953L25.0329 31.6842C26.209 29.8125 28.0462 28.0889 30.3034 27.4016C27.3498 28.0844 16.7314 31.4853 19.1367 44.6845C19.8663 48.6776 21.4492 51.4355 23.4013 53.3492C24.5134 53.4906 25.6475 53.5657 26.7971 53.5657C32.6291 53.5657 38.0257 51.7028 42.4229 48.5406V48.5406Z" fill="#111827"/>
<path fill-rule="evenodd" clip-rule="evenodd" d="M51.6747 16.8322C50.2731 13.3341 48.1574 10.2006 45.5022 7.61071C45.3519 7.46486 45.1131 7.23283 44.7926 6.94114C44.7704 6.91904 44.7483 6.89915 44.7262 6.87926C44.6046 6.76877 44.4742 6.65386 44.3305 6.5279C44.2885 6.49034 44.2421 6.45277 44.2001 6.4152C44.1006 6.33123 43.9967 6.24284 43.8883 6.15444C43.7933 6.07489 43.6982 5.99755 43.6031 5.92241C43.5258 5.86054 43.4462 5.79646 43.3644 5.73237C43.2782 5.66166 43.1875 5.59315 43.0991 5.52686C43.0416 5.48266 42.9819 5.43626 42.9222 5.39206C42.7962 5.29704 42.668 5.20202 42.5398 5.10921C42.4292 5.02965 42.3165 4.94789 42.1993 4.86392C42.1485 4.82856 42.0976 4.79541 42.049 4.76006C41.9053 4.66062 41.7571 4.55897 41.6068 4.45952C41.598 4.45289 41.5891 4.44847 41.5825 4.44185C41.1801 4.17446 40.7535 3.90265 40.298 3.63306C40.7955 4.24075 41.8367 5.99313 42.3607 7.12455C45.049 12.9385 45.2612 19.2807 44.273 23.3268C41.6643 33.9936 34.3554 41.023 26.1733 42.74C26.547 42.7599 27.2809 42.7157 27.8049 42.6582C40.9767 41.2373 51.2878 30.2767 51.6791 16.8278L51.6747 16.8322Z" fill="#111827"/>
<path fill-rule="evenodd" clip-rule="evenodd" d="M34.7203 1.19561C33.8316 0.908334 30.9664 0.0111524 26.7969 0.000103395C19.6826 -0.0197849 13.5609 2.83087 8.75912 7.3676C5.69719 14.092 6.6633 22.423 6.6633 22.423C5.48937 19.1414 4.98089 15.1461 4.79961 11.4911C1.77747 15.8312 0 21.1015 0 26.783C0 27.7906 0.0574804 28.7828 0.165809 29.7618C1.08771 31.9296 2.4186 34.0908 4.3265 36.0884C4.3265 36.0884 2.89834 35.5227 0.928529 33.7814C2.28816 38.8109 5.07375 43.2549 8.82766 46.6491C8.82324 46.6138 8.81881 46.5784 8.81218 46.543L8.8166 46.5475C8.31033 42.6759 9.74292 38.9457 11.275 35.7459C13.0613 32.5019 15.2389 29.9142 15.2389 29.9142C11.0252 25.1543 11.2087 10.3177 20.6133 3.48055C20.589 3.48497 20.5669 3.4916 20.5448 3.49602C24.595 1.50277 29.4653 0.448694 34.7203 1.19561Z" fill="#111827"/>
<path fill-rule="evenodd" clip-rule="evenodd" d="M14.1644 12.1672L8.54904 7.82495C5.84967 14.4279 6.66324 22.4229 6.66324 22.4229C5.48931 19.1414 4.98083 15.146 4.79734 11.491C1.91669 15.6366 0.172382 20.6308 0.0198384 26.0205C0.00657373 27.4657 0.0375247 28.7474 0.196701 29.8302C1.11639 31.9693 2.43401 34.0995 4.31539 36.0729C9.16364 38.0087 15.2411 29.912 15.2411 29.912C12.4113 26.7144 11.5712 18.9756 14.1666 12.165L14.1644 12.1672Z" fill="#111827"/>
<path fill-rule="evenodd" clip-rule="evenodd" d="M34.7203 1.19559C33.8316 0.908315 30.9664 0.0111339 26.7969 8.48222e-05C19.7268 -0.0175936 13.2934 2.7292 8.50046 7.2151C6.15261 13.1794 5.64192 19.0994 6.67656 22.465C8.71269 29.0855 15.2389 29.912 15.2389 29.912C12.1969 26.4758 11.4452 17.7868 14.8034 10.6469C15.5086 9.14647 17.7017 5.88038 20.7725 3.79432C23.326 2.06183 26.7571 1.36133 27.973 1.18896C30.1197 0.884007 32.3813 0.861909 34.7203 1.19338V1.19559Z" fill="#111827"/>
<path d="M28.5148 23.2118C28.2008 23.2251 27.867 23.3532 27.8736 23.6847C27.8781 23.9079 27.9422 24.1377 28.4308 24.1598C28.8928 24.1797 30.3873 24.1907 30.3873 24.1907C30.3873 24.1907 30.3033 23.972 30.2524 23.8327C30.1176 23.4615 29.8479 23.3576 29.5671 23.3134C29.2841 23.2715 28.8044 23.1985 28.5148 23.2118V23.2118Z" fill="white"/>
<path d="M80.733 46.7395C75.0208 46.7395 70.6741 45.1524 67.681 41.9781C64.6919 38.8038 63.1953 34.2963 63.1953 28.4517C63.1953 25.5472 63.6518 22.9562 64.5648 20.6747C65.4778 18.3932 66.7243 16.4687 68.3161 14.9014C69.904 13.3302 71.7974 12.1398 73.9926 11.3304C76.1878 10.5209 78.5696 10.1162 81.1379 10.1162C82.6226 10.1162 83.9762 10.2233 85.1909 10.4455C86.8264 10.7431 89.2558 11.5446 91.9829 12.8024L89.7044 19.1867C88.6207 18.6114 87.3663 18.1233 85.9293 17.7186C84.4923 17.3139 82.8647 17.1115 81.0387 17.1115C79.824 17.1115 78.6331 17.3139 77.4661 17.7186C76.299 18.1233 75.2709 18.7741 74.3737 19.6708C73.4806 20.5675 72.7621 21.7222 72.2222 23.1387C71.6784 24.5592 71.4124 26.2813 71.4124 28.3049C71.4124 29.9277 71.5871 31.4395 71.9443 32.8401C72.2976 34.2408 72.8732 35.447 73.6671 36.4628C74.4611 37.4746 75.5011 38.28 76.7833 38.8673C78.0655 39.4585 79.6215 39.7521 81.4476 39.7521C82.5948 39.7521 88.053 39.7601 90.2442 39.772L92.6578 46.7435C87.9141 46.7713 83.4086 46.7435 80.737 46.7435L80.733 46.7395Z" fill="#111827"/>
<path d="M121.993 32.6536C121.993 34.7486 121.668 36.6651 121.017 38.403C120.366 40.141 119.421 41.6289 118.194 42.8589C116.964 44.093 115.487 45.0452 113.768 45.7198C112.049 46.3943 110.12 46.7355 107.984 46.7355C105.849 46.7355 103.975 46.3983 102.252 45.7198C100.533 45.0452 99.0567 44.093 97.8261 42.8589C96.5915 41.6289 95.6349 40.141 94.9481 38.403C94.2614 36.6651 93.916 34.7486 93.916 32.6536C93.916 30.5586 94.2693 28.6501 94.9759 26.928C95.6825 25.206 96.659 23.7379 97.9094 22.5197C99.1599 21.3056 100.645 20.3572 102.363 19.6827C104.082 19.0082 105.956 18.6709 107.984 18.6709C110.013 18.6709 111.938 19.0082 113.657 19.6827C115.376 20.3572 116.852 21.3056 118.083 22.5197C119.314 23.7339 120.274 25.206 120.961 26.928C121.648 28.6501 121.993 30.5586 121.993 32.6536V32.6536ZM113.736 32.6536C113.736 30.3245 113.236 28.4913 112.244 27.1581C111.243 25.8249 109.826 25.1583 107.98 25.1583C106.134 25.1583 104.701 25.8249 103.689 27.1581C102.677 28.4913 102.169 30.3245 102.169 32.6536C102.169 34.9828 102.677 36.8318 103.689 38.2007C104.701 39.5696 106.131 40.2521 107.98 40.2521C109.83 40.2521 111.247 39.5696 112.244 38.2007C113.236 36.8318 113.736 34.9828 113.736 32.6536Z" fill="#111827"/>
<path d="M126.086 18.7661C129.035 18.7661 135.208 18.774 137.439 18.774C139.67 18.774 141.587 19.0716 143.092 19.6628C144.596 20.2541 145.787 21.0873 146.664 22.1705C147.542 23.2498 148.169 24.5354 148.538 26.0194C148.911 27.5073 149.094 29.1619 149.094 30.9831V46.0293H141.544V31.8957C141.544 29.4635 141.222 27.7414 140.583 26.7296C139.94 25.7178 138.741 25.2099 136.986 25.2099C136.443 25.2099 134.331 25.2099 133.64 25.2218V46.0332H126.09V18.7661H126.086Z" fill="#111827"/>
<path d="M155.008 12.7191L162.563 11.5327V18.7383H171.633V25.1306H162.563V35.0343C162.563 36.6215 162.84 37.8872 163.396 38.8355C163.956 39.7799 165.079 40.256 166.766 40.256C167.576 40.256 169.696 40.2759 171.578 40.26L172.741 46.6284C170.522 46.6443 167.171 46.6363 165.548 46.6363C163.487 46.6363 161.781 46.3586 160.427 45.7991C159.077 45.2396 157.994 44.4659 157.184 43.47C156.374 42.4741 155.806 41.2678 155.485 39.8473C155.163 38.4268 155.004 36.8595 155.004 35.1097V12.7191H155.008Z" fill="#111827"/>
<path d="M248.322 12.7191L255.872 11.5327V18.7383H264.943V25.1306H255.872V35.0343C255.872 36.6215 256.154 37.8872 256.71 38.8355C257.27 39.7799 258.393 40.256 260.08 40.256C260.89 40.256 263.01 40.2759 264.891 40.26L266.055 46.6284C263.839 46.6443 260.485 46.6363 258.862 46.6363C256.801 46.6363 255.094 46.3586 253.745 45.7991C252.391 45.2396 251.311 44.4659 250.502 43.47C249.692 42.4741 249.124 41.2678 248.803 39.8473C248.481 38.4268 248.322 36.8595 248.322 35.1097V12.7191Z" fill="#111827"/>
<path d="M192.41 31.8957C192.41 29.4635 192.096 27.7414 191.473 26.7296C190.846 25.7178 189.774 25.2099 188.254 25.2099C187.781 25.2099 186.019 25.2218 185.316 25.2218V46.0332H177.766V18.7661C180.97 18.782 187.734 18.774 188.714 18.774C190.64 18.774 192.204 19.0201 193.402 19.5081C194.601 20.0001 195.59 20.5794 196.368 21.254C197.447 20.4763 198.69 19.8692 200.091 19.4327C201.492 18.9923 202.787 18.774 203.97 18.774C206.097 18.774 207.848 19.0716 209.213 19.6628C210.583 20.2541 211.671 21.0873 212.48 22.1705C213.29 23.2498 213.85 24.5354 214.152 26.0194C214.453 27.5073 214.608 29.1619 214.608 30.9831V46.0293H207.058V31.8957C207.058 29.4635 206.744 27.7414 206.121 26.7296C205.498 25.7178 204.426 25.2099 202.902 25.2099C202.497 25.2099 201.929 25.3091 201.203 25.5115C200.476 25.7138 199.877 25.9678 199.404 26.2733C199.639 27.051 199.793 27.8684 199.861 28.7294C199.928 29.5904 199.96 30.511 199.96 31.491V46.0293H192.41V31.8957V31.8957Z" fill="#111827"/>
<path d="M231.026 18.6749C233.257 18.6749 235.115 18.9289 236.604 19.4368C238.088 19.9446 239.283 20.6708 240.176 21.6151C241.073 22.5595 241.705 23.7101 242.078 25.0592C242.447 26.4122 242.634 27.9121 242.634 29.5667V46.5729H231.13C229.407 46.5729 227.843 46.434 226.441 46.1325C225.04 45.827 223.829 45.331 222.817 44.6366C221.805 43.9462 221.027 43.0415 220.487 41.9266C219.947 40.8116 219.677 39.4427 219.677 37.8238C219.677 36.2049 219.991 34.9511 220.614 33.8718C221.237 32.7926 222.075 31.9315 223.123 31.2887C224.171 30.6459 225.37 30.1817 226.719 29.896C228.069 29.6103 229.474 29.4635 230.927 29.4635C231.904 29.4635 232.777 29.5072 233.535 29.5905C234.297 29.6738 234.909 29.7849 235.385 29.9198V29.2096C235.385 27.928 234.996 26.8963 234.218 26.1186C233.44 25.3409 232.09 24.9521 230.165 24.9521C228.879 24.9521 227.613 25.0433 226.362 25.2298C225.112 25.4163 224.032 25.6782 223.119 26.0155L222.154 19.9367C222.595 19.8018 223.143 19.659 223.802 19.5042C224.461 19.3534 225.179 19.2185 225.953 19.0995C226.731 18.9805 227.549 18.8813 228.41 18.794C229.272 18.7106 230.141 18.667 231.022 18.667L231.026 18.6749ZM231.634 40.76C232.376 40.76 234.48 40.7481 235.385 40.7481V34.832C235.079 34.7646 234.627 34.6971 234.015 34.6297C233.408 34.5622 232.852 34.5265 232.344 34.5265C231.634 34.5265 230.967 34.5702 230.344 34.6535C229.716 34.7368 229.169 34.8995 228.696 35.1336C228.224 35.3677 227.851 35.6891 227.581 36.0938C227.311 36.4985 227.176 37.0064 227.176 37.6135C227.176 38.7959 227.573 39.6133 228.367 40.0696C229.161 40.5259 230.248 40.7521 231.638 40.7521L231.634 40.76Z" fill="#111827"/>
<path d="M283.334 32.7052C283.334 30.7808 283.648 28.9675 284.271 27.2613C284.898 25.5551 285.799 24.0711 286.982 22.8014C288.161 21.5357 289.598 20.5318 291.289 19.7859C292.98 19.0439 294.905 18.6709 297.069 18.6709C298.486 18.6709 299.788 18.7979 300.971 19.0518C302.154 19.3058 303.301 19.6668 304.417 20.139L302.845 26.1701C302.134 25.9003 301.356 25.6623 300.514 25.4599C299.669 25.2575 298.724 25.1544 297.676 25.1544C295.445 25.1544 293.782 25.8488 292.686 27.2296C291.587 28.6143 291.039 30.4396 291.039 32.7012C291.039 35.1018 291.555 36.9548 292.583 38.2761C293.615 39.5934 295.414 40.2084 297.982 40.2521C299.089 40.2719 302.333 40.2719 303.905 40.256L305 46.7355C304.186 46.7355 298.812 46.7355 297.224 46.7355C294.79 46.7355 292.694 46.3705 290.94 45.6444C289.181 44.9183 287.736 43.9303 286.605 42.6804C285.47 41.4305 284.644 39.9545 284.12 38.2483C283.596 36.5421 283.334 34.6931 283.334 32.7012V32.7052Z" fill="#111827"/>
<path d="M270.627 21.4245V46.6362H278.178V20.2341L270.627 21.4245Z" fill="#111827"/>
<path d="M278.023 10.271C277.916 9.87021 277.737 9.53294 277.487 9.25122C277.233 8.96951 276.891 8.75524 276.471 8.60843C276.066 8.46162 275.069 8.3902 274.434 8.38623C274.434 8.38623 274.414 8.38623 274.403 8.38623C274.391 8.38623 274.383 8.38623 274.371 8.38623C273.736 8.3902 272.743 8.46559 272.334 8.6124C271.914 8.76318 271.572 8.97744 271.322 9.25519C271.068 9.53691 270.889 9.87418 270.786 10.2749C270.679 10.6757 270.627 11.1201 270.627 11.6081V12.2747C270.627 12.2747 270.627 12.2866 270.627 12.2946C270.627 12.3342 270.635 12.366 270.635 12.4057H270.627V16.8576L275.069 16.1434C275.069 16.1434 275.101 16.1315 275.117 16.1315C275.129 16.1315 275.137 16.1315 275.149 16.1275C275.661 16.0363 276.197 15.8934 276.467 15.7982C276.888 15.6474 277.229 15.4331 277.483 15.1554C277.733 14.8737 277.916 14.5364 278.019 14.1357C278.126 13.7349 278.178 13.2905 278.178 12.8025V11.6161C278.178 11.1241 278.13 10.6836 278.019 10.2829L278.023 10.271Z" fill="#111827"/>
</svg>
